<?xml version="1.0" standalone="no"?>
<!DOCTYPE svg PUBLIC "-//W3C//DTD SVG 20010904//EN"
 "http://www.w3.org/TR/2001/REC-SVG-20010904/DTD/svg10.dtd">
<svg version="1.0" xmlns="http://www.w3.org/2000/svg"
 width="546.000000pt" height="352.000000pt" viewBox="0 0 546.000000 352.000000"
 preserveAspectRatio="xMidYMid meet">

<g transform="translate(0.000000,352.000000) scale(0.100000,-0.100000)"
fill="#000000" stroke="none">
<path d="M1 3453 c1 -52 3 -61 9 -38 6 24 8 26 9 8 1 -14 7 -23 17 -23 10 0
14 -6 10 -17 -9 -36 -17 -223 -9 -223 5 0 26 24 48 52 49 66 176 218 182 218
10 0 -37 -67 -124 -177 -51 -65 -93 -122 -93 -128 1 -5 26 17 56 50 52 56 54
57 25 15 l-30 -45 47 -17 c65 -23 70 -22 65 10 -4 25 -3 26 10 9 14 -16 15
-15 20 15 5 29 12 86 21 181 2 15 6 30 11 35 4 4 5 2 2 -4 -3 -6 2 -20 13 -31
16 -17 18 -30 13 -77 -5 -48 -3 -56 11 -56 9 0 16 8 16 19 0 11 8 27 17 36 16
16 17 16 30 -1 7 -10 13 -41 14 -68 1 -94 12 -138 36 -147 25 -9 24 -14 43
146 6 49 13 92 16 94 2 3 18 -6 36 -19 17 -13 52 -31 77 -40 45 -15 46 -17 49
-63 2 -26 7 -47 11 -47 16 0 34 30 41 68 l7 38 -128 43 c-71 24 -127 47 -124
51 2 4 23 6 45 5 22 -1 43 1 45 5 6 10 83 -4 192 -37 57 -17 89 -31 85 -37 -3
-6 -7 -18 -8 -26 -2 -8 -44 -55 -96 -104 l-93 -89 84 70 c79 65 86 69 112 59
l28 -10 -5 -96 c-4 -64 -2 -90 4 -81 8 11 11 9 14 -10 1 -13 10 -25 19 -27 13
-2 17 11 23 74 4 42 10 89 13 104 l5 28 55 -29 c30 -16 61 -29 69 -29 11 0 12
-16 7 -82 l-6 -82 34 22 c29 18 35 28 40 71 4 27 9 54 13 59 4 6 -58 31 -155
62 l-162 52 29 29 29 29 135 -47 c74 -26 138 -52 142 -58 3 -6 18 -23 32 -38
32 -35 33 -41 1 -33 -19 5 -23 3 -20 -9 3 -8 7 -22 10 -30 4 -13 10 -12 42 6
21 11 42 25 48 30 5 5 15 9 22 9 26 0 -1 -31 -73 -80 -41 -28 -74 -53 -74 -56
0 -5 42 21 89 55 l34 25 -8 -106 c-7 -103 -6 -106 15 -113 12 -4 25 -4 28 0 4
4 9 50 10 103 2 53 8 102 13 109 7 7 5 13 -3 16 -7 3 1 6 17 7 29 1 29 1 11
15 -17 13 -18 15 -3 15 9 0 17 4 17 9 0 10 -91 44 -98 36 -3 -3 -10 2 -16 9
-6 8 -256 98 -556 202 -471 162 -555 188 -617 192 l-73 4 1 -69z m329 -17 c0
-2 -8 -10 -17 -17 -16 -13 -17 -12 -4 4 13 16 21 21 21 13z m-140 -170 c0 -2
-8 -10 -17 -17 -16 -13 -17 -12 -4 4 13 16 21 21 21 13z"/>
<path d="M530 3415 c167 -57 306 -103 307 -101 7 6 -565 206 -588 205 -13 0
113 -47 281 -104z"/>
<path d="M635 3465 c212 -77 199 -76 212 -18 10 44 11 45 11 13 0 -80 -5 -74
100 -110 53 -18 102 -36 107 -40 6 -4 59 -24 119 -45 89 -32 112 -36 127 -27
16 10 19 9 19 -7 0 -10 7 -22 16 -25 15 -6 16 0 10 45 -5 34 -4 49 4 44 5 -3
10 -1 10 5 0 7 7 10 15 6 14 -5 19 4 16 31 -1 6 3 14 9 18 5 3 10 10 10 15 0
4 -81 40 -179 79 l-179 71 -289 -1 -288 0 150 -54z"/>
<path d="M1235 3484 c50 -20 118 -45 153 -56 l63 -21 37 36 c21 21 47 37 57
37 15 1 11 6 -15 20 -31 17 -56 19 -210 19 l-175 0 90 -35z"/>
<path d="M1648 3513 c7 -3 16 -2 19 1 4 3 -2 6 -13 5 -11 0 -14 -3 -6 -6z"/>
<path d="M1705 3512 c6 -4 15 -15 20 -25 6 -11 98 -55 225 -108 118 -50 342
-145 498 -211 165 -70 291 -118 302 -115 10 3 27 -1 37 -9 10 -7 28 -14 40
-14 12 0 24 -8 27 -18 4 -12 55 -39 146 -77 115 -49 138 -61 127 -72 -10 -11
-37 -3 -147 42 l-134 56 -39 -39 -38 -39 93 -38 c170 -71 172 -88 3 -25 -121
46 -110 49 -159 -41 l-26 -46 173 -63 c94 -34 176 -67 181 -71 6 -5 11 -18 13
-29 3 -18 -6 -16 -109 21 -61 22 -119 38 -127 37 -9 -2 42 -23 112 -47 70 -24
126 -46 123 -48 -8 -9 -306 99 -300 108 3 5 1 9 -5 9 -5 0 -16 3 -25 6 -12 4
-14 -2 -13 -30 2 -32 4 -35 27 -29 41 11 58 6 100 -29 48 -40 35 -45 -50 -19
-35 11 -65 19 -65 18 -1 -1 1 -26 3 -54 3 -35 8 -53 17 -53 17 0 24 19 20 53
-4 33 -1 34 32 1 20 -20 28 -23 34 -12 7 11 9 11 9 -1 0 -9 6 -11 18 -6 36 15
122 33 122 25 0 -5 -20 -16 -45 -26 -33 -12 -45 -22 -46 -38 -1 -17 -2 -17 -6
-3 -2 9 -13 17 -24 17 -17 0 -19 -7 -19 -61 0 -52 2 -60 16 -55 9 3 18 6 20 6
2 0 4 15 4 33 1 27 2 29 11 14 5 -9 7 -22 4 -28 -8 -13 42 -4 127 22 45 13 58
14 58 4 0 -7 -33 -22 -80 -36 -60 -17 -77 -26 -69 -35 15 -19 49 -24 49 -8 0
21 17 17 23 -5 2 -11 15 -21 28 -23 38 -5 118 19 150 46 34 29 48 26 78 -14
42 -58 106 -28 154 70 17 36 36 68 41 72 12 8 38 -2 52 -20 6 -8 38 -17 75
-22 35 -4 73 -11 84 -15 19 -8 19 -7 5 11 -14 17 -14 18 2 6 10 -8 17 -17 16
-20 -4 -12 23 -55 63 -103 36 -43 50 -73 32 -67 -17 6 -153 -87 -153 -103 0
-21 -55 -69 -79 -69 -10 0 -18 -7 -18 -15 0 -8 6 -15 13 -15 7 0 19 -7 28 -15
18 -19 24 -18 55 7 l25 19 18 -45 c10 -25 29 -63 43 -84 l25 -38 -15 -78 c-8
-43 -15 -91 -15 -107 0 -51 -69 -65 -141 -28 -23 11 -47 18 -55 15 -7 -3 -27
9 -44 25 -26 27 -31 28 -37 13 -3 -9 -1 -30 4 -45 6 -16 7 -27 2 -26 -12 3
-29 -27 -78 -133 l-39 -85 -1 195 -1 196 34 -4 c32 -4 34 -2 29 19 -8 30 -73
127 -103 154 -12 11 -28 32 -36 47 -10 20 -22 28 -41 28 -21 0 -24 -3 -15 -12
13 -13 16 -85 6 -112 -12 -31 -24 -4 -24 55 0 56 -1 59 -25 59 -13 0 -28 8
-34 17 -9 16 -12 16 -36 -7 -26 -24 -26 -24 -31 -3 -4 13 -11 20 -20 16 -21
-8 -17 5 11 39 14 16 25 36 25 44 0 17 16 19 24 2 3 -7 4 2 3 21 -2 33 -3 34
-82 58 -44 13 -84 21 -90 19 -5 -2 -2 -5 8 -5 9 -1 17 -6 17 -12 0 -6 -7 -8
-16 -5 -9 3 -18 6 -20 6 -2 0 -4 6 -4 14 0 17 -53 32 -58 17 -6 -19 -36 -12
-66 16 -25 23 -29 24 -38 9 -5 -9 -13 -14 -19 -11 -5 4 -9 -7 -9 -24 0 -42 15
-46 34 -8 11 23 16 27 16 13 0 -11 11 -32 25 -46 l26 -27 -23 -15 c-22 -14
-25 -12 -58 23 -23 24 -34 44 -32 59 2 13 -5 30 -17 41 -12 11 -21 24 -21 30
0 6 -4 8 -9 5 -5 -3 -7 -15 -4 -25 6 -25 -24 -32 -54 -13 -16 10 -23 11 -23 3
0 -9 -5 -9 -22 0 -17 9 -24 9 -33 -5 -7 -9 -17 -16 -24 -16 -6 0 -11 -5 -11
-11 0 -6 9 -8 20 -4 16 5 20 2 18 -16 -4 -27 15 -35 35 -14 24 23 44 18 56
-15 6 -18 17 -30 28 -31 20 -1 -10 -12 -59 -23 -16 -4 -25 -11 -23 -19 3 -6 0
-19 -5 -27 -8 -12 -12 -12 -18 -2 -7 10 -13 8 -30 -7 -22 -19 -23 -18 -53 10
-24 23 -30 35 -25 54 6 22 2 25 -31 31 -36 6 -52 18 -53 37 0 5 5 5 10 2 6 -3
10 0 10 8 0 10 -7 13 -20 10 -14 -4 -20 0 -20 12 0 12 5 15 18 11 14 -5 13 -3
-3 10 -20 16 -20 16 3 11 18 -4 22 -1 22 16 0 12 5 39 11 61 10 36 12 38 45
34 25 -3 33 -1 30 9 -4 8 12 6 47 -8 90 -36 157 -57 157 -48 0 5 -14 24 -31
43 l-30 35 3 116 c2 63 2 115 1 115 -1 0 -14 -5 -28 -12 -24 -11 -25 -14 -25
-103 l0 -91 -53 0 c-65 1 -99 -19 -135 -79 -15 -25 -33 -45 -39 -45 -7 0 -13
-5 -13 -12 0 -7 -6 -6 -17 4 -10 8 -26 18 -37 22 -13 4 -17 13 -14 30 4 20 -1
25 -33 35 -20 6 -40 18 -43 27 -9 24 -24 8 -18 -21 2 -14 0 -25 -6 -25 -24 0
-42 13 -42 30 0 13 -10 21 -32 25 -31 7 -31 8 -12 23 15 12 16 14 2 9 -10 -3
-20 -2 -23 3 -3 5 -18 2 -33 -7 l-28 -16 22 -24 c12 -13 21 -35 20 -49 -1 -25
-1 -25 -72 -19 l-71 7 -27 -33 c-16 -18 -35 -48 -44 -66 -12 -26 -20 -32 -35
-27 -11 3 -27 7 -36 8 -10 2 -20 19 -26 51 -6 27 -16 50 -22 52 -6 2 -22 -9
-35 -25 -25 -29 -25 -29 -49 -11 -13 10 -29 17 -36 14 -6 -2 -20 14 -30 35
-31 67 -43 51 -43 -55 l0 -95 -27 6 c-22 5 -25 4 -17 -5 8 -8 10 -36 6 -78 -4
-48 -2 -64 7 -59 6 4 11 24 12 44 1 20 4 48 8 62 10 35 24 8 16 -30 -8 -38 3
-73 21 -66 10 4 14 -3 14 -24 0 -34 15 -40 25 -9 5 15 10 17 19 10 7 -6 16 -7
21 -3 10 10 -7 -526 -25 -778 l-9 -124 -46 -42 c-25 -23 -45 -48 -45 -55 0 -8
-10 -25 -21 -39 l-21 -25 6 155 c15 387 19 440 32 440 16 0 16 401 0 412 -6 4
0 11 13 16 16 5 20 11 13 16 -6 4 -25 0 -41 -9 -51 -26 -61 -21 -61 33 0 26 3
85 7 132 6 82 7 83 18 50 l12 -35 7 33 c4 17 12 32 17 32 5 0 7 11 5 25 -3 14
-1 25 4 25 5 0 11 -10 13 -22 2 -13 5 0 5 27 0 32 -2 43 -7 31 -4 -11 -10 -15
-14 -10 -8 14 3 54 16 54 6 0 8 20 4 55 -3 30 -1 57 4 60 5 4 9 31 9 61 0 47
-3 56 -22 63 -13 5 -26 7 -30 4 -11 -6 -10 75 1 81 14 9 20 60 9 73 -7 9 -6
14 5 19 23 8 40 -5 34 -27 -7 -25 10 -24 23 2 7 12 9 49 5 97 -8 102 -2 109
66 87 153 -49 167 -56 164 -80 -2 -24 -2 -24 29 -8 30 16 35 15 188 -38 133
-46 157 -57 154 -73 -1 -10 -10 -25 -20 -32 -17 -12 -17 -13 0 -22 14 -8 17
-21 15 -71 -1 -34 1 -61 5 -61 17 0 33 39 34 82 0 42 -3 47 -27 56 l-28 9 32
16 c44 23 58 21 71 -8 16 -35 15 -48 -4 -41 -12 5 -15 0 -12 -22 3 -28 7 -29
46 -17 20 6 22 3 22 -30 0 -30 3 -36 16 -31 9 3 18 6 20 6 2 0 4 16 4 36 0 25
4 33 13 28 6 -4 0 6 -15 23 -47 49 -34 54 59 22 47 -16 88 -27 90 -25 4 4
-117 46 -554 193 -156 52 -283 100 -283 105 0 6 11 7 25 4 44 -11 27 2 -26 19
-37 13 -53 14 -58 6 -8 -12 -65 2 -85 20 -16 14 -66 -23 -66 -49 0 -19 -4 -23
-17 -18 -15 6 -15 4 2 -14 16 -18 17 -32 11 -152 -4 -85 -11 -135 -19 -140 -9
-6 -9 -8 1 -8 17 0 15 -27 -3 -34 -10 -4 -15 1 -15 14 0 11 -5 20 -11 20 -5 0
-8 4 -5 9 3 5 -7 11 -22 14 -15 3 -35 9 -44 12 -13 5 -15 2 -11 -16 5 -19 3
-21 -13 -15 -10 4 -34 10 -51 13 -24 4 -33 11 -33 25 0 10 -6 20 -12 22 -48
13 -159 38 -174 39 -11 1 -22 7 -26 12 -5 6 -14 1 -23 -12 -9 -13 -23 -23 -32
-23 -15 0 -15 -1 -1 -12 9 -7 19 -26 22 -41 7 -31 34 -45 96 -49 38 -2 40 -3
40 -35 0 -33 -1 -33 -47 -34 -27 -1 -52 -2 -58 -4 -5 -1 -18 -3 -27 -3 -12 -1
-18 -10 -18 -28 0 -24 -48 -105 -70 -119 -5 -3 -23 1 -40 10 -16 8 -32 15 -35
15 -3 0 -9 0 -15 0 -5 0 -10 19 -11 43 -1 59 -11 82 -36 85 -15 2 -29 -8 -47
-31 -14 -19 -26 -39 -26 -45 0 -21 -17 -21 -66 -3 -48 19 -49 20 -62 77 -7 34
-21 65 -32 74 -18 14 -18 21 -6 143 l12 129 -23 9 c-13 5 -36 11 -51 14 -26 5
-26 5 -3 -5 23 -10 23 -13 17 -83 -17 -189 -30 -297 -35 -297 -3 0 -31 13 -61
28 -37 19 -56 35 -61 52 -11 40 -37 124 -44 141 -4 11 0 18 14 22 28 7 29 47
1 47 -13 0 -18 5 -14 15 4 8 14 15 23 15 22 0 68 -41 73 -65 2 -11 8 3 12 33
4 28 13 52 19 52 8 0 8 3 -1 12 -6 6 -26 11 -45 10 -31 -1 -34 1 -34 27 l0 29
44 -15 c23 -8 48 -13 55 -11 6 2 -60 23 -147 47 -88 24 -166 46 -174 49 -13 5
-14 3 -4 -9 8 -9 9 -20 3 -29 -13 -20 -13 -110 0 -110 6 0 10 -5 10 -11 0 -5
-4 -7 -10 -4 -7 4 -10 -386 -10 -1164 l0 -1170 48 -4 47 -3 -47 -2 -48 -2 0
-74 c0 -50 4 -76 13 -79 9 -4 9 -6 0 -6 -10 -1 -13 -49 -13 -206 l0 -205 2730
0 c2723 0 2730 0 2730 20 0 13 -7 20 -19 20 -10 0 -29 9 -42 19 -30 25 -18 51
32 67 32 11 30 12 -51 22 -47 7 -130 17 -184 23 l-99 12 94 27 c52 15 133 38
182 50 l87 23 0 1619 0 1618 -667 0 c-367 0 -663 -4 -657 -8 5 -5 49 -37 97
-71 68 -49 93 -62 112 -57 24 6 49 -14 27 -22 -15 -5 15 -29 181 -146 92 -65
145 -96 160 -94 16 2 23 -3 25 -17 2 -11 27 -37 55 -57 29 -21 92 -69 141
-106 60 -46 97 -68 110 -65 12 2 15 1 8 -3 -6 -3 -12 -12 -12 -20 0 -8 -5 -14
-12 -14 -13 0 -174 106 -287 190 -45 33 -86 58 -91 55 -6 -4 -10 1 -10 9 0 8
-4 18 -10 21 -6 4 -7 -1 -3 -11 4 -12 3 -15 -5 -10 -7 4 -12 13 -12 21 0 19
-177 148 -191 139 -7 -4 -9 -3 -5 4 3 6 -66 63 -164 136 l-169 126 -1193 0
c-656 0 -1188 -4 -1183 -8z m2364 -59 c2 -2 0 -3 -5 -3 -5 0 -22 12 -39 26
l-30 26 35 -23 c19 -12 37 -24 39 -26z m206 -143 c3 -5 3 -10 0 -10 -11 0
-185 125 -185 133 0 9 175 -108 185 -123z m36 -7 c8 -22 12 -24 19 -13 9 14
11 13 14 -10 0 -5 80 -63 176 -129 305 -209 448 -313 433 -318 -16 -6 -170 95
-378 247 -243 176 -281 207 -282 230 -2 28 6 25 18 -7z m-4201 -278 c0 -8 -4
-15 -10 -15 -5 0 -7 7 -4 15 4 8 8 15 10 15 2 0 4 -7 4 -15z m4638 -123 c81
-55 119 -81 184 -129 38 -29 63 -41 74 -36 13 5 16 3 11 -10 -3 -9 -3 -17 1
-17 4 0 25 -14 45 -31 59 -49 31 -59 -38 -14 l-57 36 8 -138 c4 -76 8 -154 8
-173 l1 -35 -70 -7 c-38 -4 -218 -21 -400 -38 -181 -17 -352 -33 -378 -37 -48
-6 -49 -5 -36 16 22 34 2 54 -53 55 -25 1 -44 -2 -41 -6 2 -5 -5 -8 -16 -8
-11 0 -22 -9 -26 -20 -3 -11 -13 -20 -21 -20 -8 0 -14 -9 -14 -20 0 -11 -7
-20 -15 -20 -27 0 -85 33 -85 49 0 11 -3 12 -11 4 -14 -14 -46 -6 -53 14 -3 8
-10 11 -16 8 -5 -3 -10 2 -10 11 0 10 -11 29 -24 43 -17 19 -22 31 -16 46 5
11 9 14 9 8 1 -20 21 -15 21 5 0 18 100 68 150 74 17 2 -42 32 -192 96 -179
77 -221 91 -237 82 -17 -9 -23 -6 -36 20 -8 16 -19 30 -23 30 -4 0 -13 9 -20
20 -11 18 -10 19 16 8 15 -6 38 -10 52 -9 14 1 31 -7 40 -18 19 -24 424 -203
444 -195 22 9 68 -26 63 -48 -3 -10 -3 -18 0 -18 5 0 858 232 908 247 17 5 17
8 -10 29 -17 13 -34 24 -38 24 -4 0 -30 17 -56 38 -27 20 -68 50 -90 65 -26
18 -38 33 -34 42 8 22 18 19 81 -23z m-4649 3 c2 -2 1 -11 -2 -18 -9 -23 -57
-9 -57 15 0 17 4 19 27 13 16 -4 30 -8 32 -10z m-9 -82 c0 -5 -4 -14 -9 -21
-6 -10 -10 -9 -14 7 -3 14 0 21 9 21 8 0 14 -3 14 -7z m910 -44 c0 -6 9 -8 20
-4 11 4 20 2 20 -4 0 -12 -14 -14 -47 -5 -13 4 -20 10 -17 15 7 12 24 11 24
-2z m2027 -21 c-3 -8 -6 -5 -6 6 -1 11 2 17 5 13 3 -3 4 -12 1 -19z m-1891
-93 c3 -8 25 -20 48 -27 71 -20 66 -30 -11 -26 -40 2 -75 6 -78 10 -3 3 -3 17
1 32 7 28 31 35 40 11z m2018 -21 c9 -3 16 -13 16 -21 0 -10 -6 -13 -16 -9 -9
3 -18 6 -20 6 -2 0 -4 7 -4 15 0 17 2 18 24 9z m-1837 -20 c-3 -3 -12 -4 -19
-1 -8 3 -5 6 6 6 11 1 17 -2 13 -5z m17 -40 c11 -4 16 -19 16 -44 0 -44 -7
-52 -38 -43 -18 4 -22 13 -22 42 0 49 9 58 44 45z m1881 -4 c-3 -5 -14 -10
-23 -10 -15 0 -15 2 -2 10 20 13 33 13 25 0z m75 6 c0 -2 3 -11 6 -20 4 -11 1
-16 -10 -16 -9 0 -16 2 -16 4 0 2 -3 11 -6 20 -4 11 -1 16 10 16 9 0 16 -2 16
-4z m-2060 -52 c0 -53 -10 -60 -45 -32 -21 16 -29 18 -35 8 -10 -17 -30 -4
-30 21 0 10 -7 19 -15 19 -15 0 -20 12 -10 22 3 3 35 6 70 6 l65 0 0 -44z
m-213 4 c-3 -7 -5 -2 -5 12 0 14 2 19 5 13 2 -7 2 -19 0 -25z m-69 -17 c15
-49 15 -52 -3 -45 -8 4 -15 18 -15 33 0 15 -5 32 -12 39 -9 9 -9 12 3 12 10 0
20 -16 27 -39z m2289 -25 c4 -3 -8 -6 -25 -6 -18 0 -32 -5 -32 -11 0 -5 5 -7
10 -4 6 3 10 1 10 -4 0 -6 -13 -11 -29 -11 -28 0 -29 1 -18 29 9 26 13 28 44
20 19 -4 37 -10 40 -13z m-2962 -30 l170 -33 -3 -56 c-2 -45 2 -61 17 -76 10
-10 21 -25 23 -32 4 -11 10 -11 30 -2 30 14 38 9 38 -24 0 -14 4 -21 10 -18
13 8 12 -36 -4 -200 -8 -78 -14 -109 -15 -78 l-1 51 -40 -5 -39 -6 6 54 c4 43
3 52 -7 42 -11 -10 -34 -181 -41 -309 -3 -45 -1 -49 19 -47 12 2 22 -1 22 -5
0 -5 14 -7 31 -6 27 2 30 0 24 -19 -11 -38 -12 -62 -2 -68 11 -8 -9 -200 -22
-209 -7 -4 -81 -746 -81 -807 0 -8 15 -13 40 -13 24 0 42 5 45 13 7 20 35 424
36 517 0 47 -3 111 -7 142 -4 37 -3 62 4 71 6 7 12 65 13 137 0 69 6 131 11
138 6 6 8 12 4 12 -3 0 3 9 13 19 20 20 18 61 -3 61 -6 0 -3 5 6 11 10 5 15
16 11 24 -3 9 0 22 6 29 9 11 9 15 -1 18 -10 4 -11 12 -3 34 6 16 10 57 10 91
0 35 3 63 8 63 4 0 6 20 5 45 0 25 1 48 4 51 3 3 2 21 -4 40 -10 39 14 163 36
176 17 12 26 9 26 -7 0 -7 6 -18 14 -22 7 -4 18 -21 24 -38 9 -26 11 -27 11
-7 1 18 7 22 31 22 27 0 30 -3 30 -33 0 -18 5 -38 12 -45 9 -9 9 -12 0 -12 -7
0 -10 -11 -7 -32 4 -26 3 -29 -4 -13 -9 18 -10 18 -10 2 -1 -10 6 -25 14 -33
13 -14 15 -13 15 5 0 23 37 108 51 116 4 3 6 12 3 19 -8 20 17 32 30 14 6 -8
17 -13 24 -11 7 3 12 -4 12 -16 0 -24 10 -27 29 -8 11 10 13 10 7 0 -4 -7 -2
-13 3 -13 6 0 11 -5 11 -12 0 -9 -3 -9 -11 -1 -12 12 -39 7 -39 -8 0 -5 6 -9
14 -9 8 0 16 -5 18 -12 7 -19 28 2 28 28 0 13 3 24 8 24 4 0 6 -31 4 -70 -2
-38 -7 -69 -10 -69 -19 3 -22 -3 -10 -20 22 -31 -6 -298 -33 -322 -24 -21 -25
-33 -1 -27 10 3 23 -1 31 -9 19 -21 36 -10 39 26 2 23 7 31 18 27 8 -3 14 1
14 10 0 8 -4 13 -8 10 -4 -2 -9 5 -9 17 -2 17 0 19 7 7 5 -8 10 -12 11 -7 1 4
2 10 3 15 1 4 6 77 11 162 5 85 10 158 11 163 1 4 2 24 3 45 2 59 14 68 44 38
28 -28 53 -34 59 -14 3 7 12 9 22 5 15 -6 16 -16 11 -79 -3 -40 -21 -336 -40
-658 -19 -322 -37 -598 -40 -615 -3 -20 -17 -38 -39 -53 -21 -14 -42 -41 -53
-67 -9 -24 -26 -48 -37 -55 -18 -12 -18 -7 -11 177 4 103 8 209 10 236 1 26 0
47 -4 47 -7 0 -8 9 -14 188 -4 122 -9 154 -22 140 -3 -2 -16 -164 -30 -359
-13 -195 -27 -378 -31 -406 l-5 -53 53 -1 c33 -1 45 -3 31 -7 -11 -4 -46 -31
-77 -59 l-57 -53 -147 -10 c-81 -5 -173 -12 -204 -15 -32 -2 -57 -1 -56 3 1 4
-2 31 -6 61 l-8 53 -70 -4 c-39 -2 -65 -2 -59 0 15 5 19 37 41 362 11 162 24
311 30 330 6 20 8 64 4 101 -6 58 13 348 45 699 6 61 5 97 -1 101 -5 4 -71 16
-146 29 -76 12 -159 26 -186 32 l-48 10 6 82 c14 172 15 176 45 170 14 -3 103
-20 196 -38z m3300 6 c-3 -3 -11 0 -18 7 -9 10 -8 11 6 5 10 -3 15 -9 12 -12z
m-2178 -109 c-2 -16 -4 -3 -4 27 0 30 2 43 4 28 2 -16 2 -40 0 -55z m1715 45
c-6 -6 -16 -7 -22 -3 -9 6 -9 9 1 16 17 10 34 0 21 -13z m112 4 c2 -4 -7 -9
-22 -10 -21 -1 -24 0 -12 8 18 12 27 12 34 2z m-1074 -12 c0 -5 11 -12 25 -16
14 -3 25 -13 25 -21 0 -11 -6 -14 -22 -9 -13 3 -31 6 -40 6 -12 0 -18 8 -18
25 0 16 6 25 15 25 8 0 15 -4 15 -10z m-80 -10 c0 -5 -4 -10 -10 -10 -5 0 -10
5 -10 10 0 6 5 10 10 10 6 0 10 -4 10 -10z m-60 -42 c0 -6 -7 -7 -16 -4 -9 3
-20 6 -25 6 -5 0 -9 4 -9 9 0 4 11 6 25 3 14 -2 25 -9 25 -14z m-1355 -18 c3
-5 1 -10 -4 -10 -6 0 -11 5 -11 10 0 6 2 10 4 10 3 0 8 -4 11 -10z m1244 -34
c19 -20 22 -31 17 -59 -8 -42 -31 -66 -48 -49 -7 7 -18 12 -26 12 -9 0 -4 -8
12 -21 14 -11 26 -29 26 -40 0 -26 -9 -24 -42 8 -24 23 -30 25 -38 13 -7 -11
-10 -3 -10 28 0 44 7 50 30 30 12 -11 12 -10 1 5 -31 40 0 128 38 108 9 -5 27
-21 40 -35z m68 2 c-3 -8 -6 -5 -6 6 -1 11 2 17 5 13 3 -3 4 -12 1 -19z m2995
-4 c17 -9 40 -13 54 -10 28 7 45 -15 65 -83 12 -41 17 -45 86 -77 40 -18 73
-38 73 -43 0 -15 2 -15 -75 20 -77 35 -80 34 -90 -46 -8 -67 -29 -138 -38
-129 -4 4 -7 -5 -7 -19 0 -25 -3 -27 -44 -27 l-44 0 -4 60 c-6 81 14 237 35
277 17 32 24 68 9 48 -15 -21 -49 -33 -78 -27 l-29 6 25 7 c25 7 24 7 -4 8
-16 1 -26 4 -23 8 4 3 3 11 -3 18 -6 8 1 10 28 8 32 -2 34 -1 12 6 -25 9 -25
9 -2 10 13 1 37 -6 54 -15z m-2942 -33 c0 -14 -5 -18 -20 -14 -25 7 -26 20 -2
26 9 3 18 5 20 6 1 0 2 -8 2 -18z m870 -65 c0 -8 10 -16 23 -18 18 -2 23 -10
25 -47 3 -37 1 -43 -13 -37 -9 3 -21 6 -26 6 -5 0 -9 7 -9 15 0 8 -4 15 -9 15
-14 0 -22 29 -15 56 7 26 24 33 24 10z m-1873 -58 c-2 -13 -4 -3 -4 22 0 25 2
35 4 23 2 -13 2 -33 0 -45z m2763 32 c7 -17 9 -34 6 -38 -10 -9 -36 27 -36 50
0 28 16 21 30 -12z m-1402 -22 c39 -50 56 -106 43 -140 -5 -12 -23 -38 -40
-55 -17 -18 -31 -38 -31 -45 0 -9 3 -9 12 0 33 33 36 4 7 -73 -20 -54 -39 -65
-39 -23 0 21 0 21 -17 1 -10 -10 -33 -25 -50 -32 -18 -7 -31 -17 -28 -21 2 -4
-4 -15 -15 -25 -11 -10 -17 -23 -13 -29 4 -6 0 -5 -9 2 -14 11 -19 8 -37 -21
-11 -18 -30 -42 -42 -53 l-22 -19 6 33 7 34 -35 -31 c-62 -54 -92 -30 -34 28
32 32 64 40 72 19 4 -15 71 28 105 67 12 14 28 25 34 25 10 0 9 3 -1 9 -11 7
-11 15 0 47 8 22 16 41 19 44 4 3 17 21 31 40 29 41 28 71 -5 86 -20 9 -23 9
-18 -8 2 -10 0 -18 -6 -18 -12 0 -27 39 -18 47 3 4 1 12 -5 20 -9 10 -6 21 12
47 13 19 26 34 29 34 18 -2 23 4 10 12 -13 8 -11 11 8 16 12 4 22 10 22 15 0
19 17 7 48 -33z m465 10 c7 -47 -12 -65 -52 -48 -40 16 -39 35 2 60 42 26 44
26 50 -12z m155 -30 c-25 -26 -28 -23 -28 24 l0 41 23 -24 c22 -23 22 -25 5
-41z m1846 47 c3 -8 1 -15 -4 -15 -6 0 -10 7 -10 15 0 8 2 15 4 15 2 0 6 -7
10 -15z m-4476 -151 c-10 -70 -21 -130 -24 -133 -4 -3 -4 12 -1 34 23 181 31
233 37 230 4 -2 -2 -61 -12 -131z m937 126 c4 -6 11 -7 17 -4 7 4 8 -13 4 -52
-5 -59 -8 -110 -47 -803 -11 -204 -24 -373 -31 -385 -13 -25 -48 -60 -49 -49
-1 23 2 249 5 393 5 165 3 178 -9 66 -4 -38 -10 -54 -15 -46 -8 13 -4 225 6
327 5 47 8 52 27 50 22 -2 22 1 34 213 9 173 17 269 22 298 2 7 31 1 36 -8z
m3555 -15 c0 -8 4 -15 9 -15 11 0 38 -42 43 -66 2 -15 -4 -20 -32 -24 l-35 -6
30 -15 c26 -13 30 -20 27 -49 -6 -75 -9 -80 -52 -80 -21 0 -42 -5 -45 -10 -4
-6 -11 -7 -17 -4 -7 4 -6 9 2 14 7 4 10 12 6 18 -11 18 -134 -38 -193 -89 -51
-44 -73 -46 -100 -13 -13 16 -30 43 -38 60 -19 40 -63 87 -97 104 -32 15 -34
27 -13 57 13 18 19 20 43 11 21 -8 35 -26 54 -69 19 -43 36 -64 62 -80 30 -17
34 -24 25 -35 -7 -8 -10 -16 -7 -19 2 -2 52 43 111 100 100 98 109 105 147
105 37 0 40 2 40 26 0 15 -8 33 -17 40 -17 13 -17 15 6 34 28 24 41 25 41 5z
m-2816 -40 c-4 -8 -8 -15 -10 -15 -2 0 -4 7 -4 15 0 8 4 15 10 15 5 0 7 -7 4
-15z m506 5 c3 -1 -6 -5 -18 -11 -24 -9 -46 -4 -38 10 4 6 36 7 56 1z m259
-93 c13 -28 32 -71 42 -95 10 -23 19 -49 19 -58 0 -8 8 -29 17 -47 32 -60 52
-107 45 -107 -4 0 -14 15 -23 33 -9 17 -24 34 -35 36 -21 4 -52 36 -64 67 -6
14 -25 26 -55 35 -60 18 -73 33 -50 59 10 11 26 22 35 25 18 6 21 20 7 42 -4
7 -3 22 3 33 6 11 8 31 4 43 -13 43 31 -9 55 -66z m-1807 -59 c-5 -5 -8 1 -6
14 1 13 4 46 5 73 3 48 3 47 6 -14 2 -35 0 -68 -5 -73z m671 108 c14 -13 23
-27 19 -32 -4 -4 -1 -4 6 0 7 4 10 11 7 15 -2 5 7 13 22 20 l26 12 -7 -233
c-4 -128 -9 -282 -12 -343 l-5 -110 -39 -40 c-21 -22 -45 -55 -54 -72 -9 -18
-21 -33 -26 -33 -12 0 -12 36 0 245 9 157 15 259 26 483 3 61 7 112 9 112 1 0
14 -11 28 -24z m837 -6 c0 -5 -4 -10 -9 -10 -6 0 -13 5 -16 10 -3 6 1 10 9 10
9 0 16 -4 16 -10z m-1063 -72 c-2 -13 -4 -5 -4 17 -1 22 1 32 4 23 2 -10 2
-28 0 -40z m404 -9 c-17 -69 -14 -84 26 -112 21 -15 45 -27 52 -27 8 0 11 -6
7 -17 -4 -9 -10 -60 -13 -112 -5 -64 -9 -88 -14 -71 -5 18 -7 10 -8 -31 -1
-52 -4 -58 -46 -98 -25 -24 -45 -51 -45 -61 0 -10 -7 -24 -17 -31 -15 -13 -16
-4 -9 121 3 74 9 210 13 301 l6 166 26 -7 c15 -4 25 -13 22 -21z m399 16 c0
-16 -9 -19 -34 -9 -20 8 -11 24 15 24 10 0 19 -7 19 -15z m-95 -5 c3 -5 -3
-10 -15 -10 -12 0 -18 5 -15 10 3 6 10 10 15 10 5 0 12 -4 15 -10z m-1636 -40
c0 -29 -2 -31 -9 -15 -7 17 -9 17 -9 3 -1 -23 2 -34 11 -31 8 3 -2 -80 -12
-90 -4 -4 -13 0 -21 9 -8 11 -9 15 -2 11 19 -12 28 40 12 69 -10 20 -10 29 -1
44 16 26 15 28 -5 33 -10 3 -6 4 10 4 24 -1 27 -5 26 -37z m1420 13 c-7 -10
-15 -20 -16 -22 -2 -2 -3 5 -3 17 0 14 6 22 16 22 14 0 15 -3 3 -17z m76 -3
c-3 -5 -11 -10 -16 -10 -6 0 -7 5 -4 10 3 6 11 10 16 10 6 0 7 -4 4 -10z m127
-25 c6 -14 15 -25 20 -25 20 0 5 -41 -23 -60 -17 -13 -28 -28 -25 -36 4 -10
-4 -14 -29 -14 -18 0 -37 -5 -40 -10 -10 -16 -25 -1 -25 24 0 12 -7 31 -15 42
-21 28 -19 39 16 73 24 24 39 31 70 31 32 0 41 -4 51 -25z m-1675 -27 c-3 -8
-6 -5 -6 6 -1 11 2 17 5 13 3 -3 4 -12 1 -19z m533 -34 c0 -30 -3 -53 -7 -51
-8 5 -5 107 3 107 2 0 4 -25 4 -56z m-463 -26 c-2 -13 -4 -5 -4 17 -1 22 1 32
4 23 2 -10 2 -28 0 -40z m3887 21 c-8 -13 -24 -1 -24 18 0 13 3 13 15 3 8 -7
12 -16 9 -21z m-1454 -66 c0 -78 -1 -85 -15 -67 -18 23 -19 76 -3 121 7 18 13
33 15 33 2 0 3 -39 3 -87z m109 -45 c1 -53 -4 -109 -9 -123 -19 -50 14 -21 43
38 23 45 33 57 52 57 13 0 27 -5 30 -10 7 -11 -41 -100 -53 -100 -4 0 -6 -41
-5 -91 0 -50 -2 -87 -7 -83 -4 5 -10 18 -12 28 -4 25 -28 33 -29 9 0 -10 -6 7
-13 39 -7 31 -18 63 -25 72 -10 11 -12 49 -9 143 5 195 36 212 37 21z m792 66
c26 -24 24 -50 -7 -79 -38 -35 -48 -32 -40 13 4 20 9 48 10 62 2 14 4 34 6 45
3 19 3 19 7 -1 2 -12 13 -30 24 -40z m545 -61 l7 -91 44 -7 c28 -4 43 -11 40
-18 -3 -7 -10 -11 -18 -9 -59 14 -69 14 -69 -1 0 -12 17 -19 60 -28 33 -6 60
-16 60 -22 0 -9 -46 -5 -98 9 -23 7 -23 5 -18 -37 3 -24 8 -101 12 -171 5
-108 4 -128 -8 -128 -8 0 -20 -10 -26 -22 -8 -18 -11 -19 -11 -5 -1 9 -9 17
-18 17 -14 0 -15 2 -4 9 11 7 11 41 2 204 -15 264 -15 404 2 410 25 9 36 -20
43 -110z m-1656 87 c0 -5 -7 -7 -15 -4 -8 4 -15 8 -15 10 0 2 7 4 15 4 8 0 15
-4 15 -10z m-1733 -42 c-3 -7 -5 -2 -5 12 0 14 2 19 5 13 2 -7 2 -19 0 -25z
m-40 -75 c-2 -16 -4 -5 -4 22 0 28 2 40 4 28 2 -13 2 -35 0 -50z m233 32 c0
-8 -4 -15 -10 -15 -5 0 -10 7 -10 15 0 8 5 15 10 15 6 0 10 -7 10 -15z m2048
-132 c-1 -82 -3 -130 -6 -108 -4 36 -6 38 -12 15 -5 -15 -8 21 -7 85 1 106 1
107 7 35 l6 -75 2 98 c1 53 4 97 7 97 3 0 4 -66 3 -147z m1502 91 l25 -13 -27
-1 c-34 0 -38 -27 -6 -32 27 -4 32 -18 15 -42 -11 -15 -21 -17 -58 -11 -67 10
-76 18 -55 49 9 14 25 26 36 26 26 0 25 7 -2 31 l-23 20 35 -7 c19 -3 46 -12
60 -20z m400 -16 c0 -16 -3 -19 -11 -11 -6 6 -8 16 -5 22 11 17 16 13 16 -11z
m-147 1 c29 -16 28 -14 21 -32 -5 -14 -10 -14 -42 3 -20 11 -45 20 -54 20 -10
0 -18 5 -18 10 0 14 66 13 93 -1z m-2195 -51 c-3 -44 -6 -53 -23 -56 -28 -4
-72 37 -53 49 10 6 10 9 1 9 -38 0 19 47 60 49 16 1 18 -6 15 -51z m-2506 -14
c-2 -13 -8 -24 -13 -24 -5 0 -5 10 0 23 4 12 6 29 4 37 -4 12 -3 12 5 2 5 -7
7 -24 4 -38z m4638 2 c0 -3 -4 -8 -10 -11 -5 -3 -10 -1 -10 4 0 6 5 11 10 11
6 0 10 -2 10 -4z m380 -12 c0 -4 -8 -13 -17 -20 -13 -10 -15 -16 -6 -22 15
-10 0 -37 -16 -28 -12 8 -15 58 -4 69 8 9 43 9 43 1z m-1760 -14 c0 -13 -20
-13 -40 0 -12 8 -9 10 13 10 15 0 27 -4 27 -10z m-1430 -20 c0 -26 -43 -70
-67 -70 -13 1 -11 5 10 16 33 18 38 40 5 23 -14 -7 -9 1 12 19 42 37 40 37 40
12z m1647 -5 c-15 -16 -19 -13 -11 9 3 9 10 13 15 10 5 -3 3 -11 -4 -19z m30
-17 c-3 -7 -5 -2 -5 12 0 14 2 19 5 13 2 -7 2 -19 0 -25z m-647 -165 c0 -251
-10 -237 -26 39 -5 89 -4 121 6 133 7 8 14 15 16 15 2 0 4 -84 4 -187z m666
152 c-3 -8 -11 -15 -18 -14 -10 0 -10 2 0 6 6 2 12 14 13 26 0 12 3 16 6 9 3
-7 2 -19 -1 -27z m-1178 -30 c-1 -31 -5 -45 -15 -45 -10 0 -13 -29 -14 -132
-1 -146 -16 -131 -20 20 -1 45 -6 85 -12 89 -6 4 -13 1 -15 -5 -2 -7 -8 -12
-13 -12 -5 0 -2 12 8 28 21 33 73 102 78 102 2 0 3 -20 3 -45z m32 -27 c0 -51
-3 -68 -10 -58 -13 20 -13 130 0 130 6 0 10 -31 10 -72z m-2384 35 c-10 -10
-19 5 -10 18 6 11 8 11 12 0 2 -7 1 -15 -2 -18z m1744 1 c0 -14 -3 -14 -15 -4
-8 7 -15 14 -15 16 0 2 7 4 15 4 8 0 15 -7 15 -16z m3087 -1 c3 -9 -4 -10 -28
-3 -45 13 -50 22 -10 18 19 -2 36 -8 38 -15z m-2314 -118 c53 -35 57 -40 57
-76 l0 -39 -34 17 c-19 8 -39 26 -45 39 -6 13 -17 24 -26 24 -8 0 -15 5 -15
10 0 6 -4 10 -10 10 -6 0 -11 -40 -12 -97 l-2 -98 -6 100 c-3 55 -7 96 -8 90
-6 -29 -22 28 -22 79 l0 58 33 -40 c17 -21 58 -56 90 -77z m2477 100 c7 -9 10
-18 7 -21 -10 -11 -37 5 -37 21 0 19 14 19 30 0z m78 -22 c-10 -2 -26 -2 -35
0 -10 3 -2 5 17 5 19 0 27 -2 18 -5z m-3522 -110 c-31 -61 -55 -93 -56 -74 0
19 74 145 78 132 2 -5 -8 -31 -22 -58z m-1562 15 c-3 -24 -8 -59 -11 -78 -5
-33 -6 -33 -12 -10 -11 40 -1 130 14 130 9 0 12 -12 9 -42z m4916 -1 c0 -8 -9
-22 -20 -32 -17 -16 -20 -16 -20 -2 0 26 11 47 26 47 8 0 14 -6 14 -13z
m-2141 -134 c-1 -80 -4 -102 -12 -88 -16 30 -22 162 -7 180 7 8 14 15 17 15 2
0 3 -48 2 -107z m2221 98 c0 -5 -7 -14 -15 -21 -16 -14 -18 -10 -9 14 6 17 24
22 24 7z m-2802 -132 c-7 -5 -16 -9 -20 -9 -15 0 -8 81 10 113 l17 32 3 -64
c2 -45 -1 -67 -10 -72z m-2474 96 c-4 -8 -8 -15 -10 -15 -2 0 -4 7 -4 15 0 8
4 15 10 15 5 0 7 -7 4 -15z m5200 -7 c3 -13 6 -45 6 -71 0 -46 -1 -48 -27 -44
-25 3 -28 8 -31 50 -3 50 10 87 32 87 8 0 16 -10 20 -22z m73 -70 c-3 -8 -6
-5 -6 6 -1 11 2 17 5 13 3 -3 4 -12 1 -19z m-3467 -53 c-11 -14 -10 -17 8 -22
26 -7 19 -23 -11 -24 -17 -1 -18 -2 -4 -6 26 -7 21 -23 -8 -23 -16 0 -25 -6
-25 -15 0 -15 -12 -20 -23 -9 -9 9 20 75 45 101 24 25 39 23 18 -2z m-116
-119 c-5 -83 -10 -116 -19 -116 -7 0 -16 -8 -21 -17 -6 -14 -9 -9 -14 22 l-7
40 -2 -35 c-2 -48 -25 -111 -45 -122 -14 -8 -16 -2 -16 49 1 36 8 73 20 98 11
22 19 48 20 58 0 19 81 150 88 143 2 -2 0 -56 -4 -120z m-1437 82 c-3 -8 -6
-5 -6 6 -1 11 2 17 5 13 3 -3 4 -12 1 -19z m4982 -15 c-7 -10 -15 -20 -16 -22
-2 -2 -3 5 -3 17 0 14 6 22 16 22 14 0 15 -3 3 -17z m-2273 -61 c-9 -9 -37 8
-31 18 5 8 11 7 21 -1 8 -6 12 -14 10 -17z m44 12 c0 -8 -4 -12 -10 -9 -5 3
-10 10 -10 16 0 5 5 9 10 9 6 0 10 -7 10 -16z m-132 -11 c6 -20 -64 -17 -72 3
-5 12 1 15 31 12 20 -2 38 -9 41 -15z m995 -41 c9 -8 17 -22 17 -31 0 -14 -2
-14 -10 -1 -8 12 -10 12 -11 -5 0 -11 -3 -15 -5 -8 -3 7 -11 10 -18 7 -27 -10
-46 40 -21 58 10 7 21 3 48 -20z m1345 10 c2 -7 -7 -12 -22 -12 -27 0 -35 15
-13 23 17 7 30 3 35 -11z m-3289 -58 c-12 -27 -13 -27 -16 -7 -5 26 19 77 24
52 2 -8 -2 -29 -8 -45z m-504 -66 c-9 -29 -22 -64 -30 -78 -14 -24 -14 -24
-15 22 0 26 5 50 11 54 6 3 18 23 26 43 22 51 27 24 8 -41z m2055 50 c6 -17 9
-19 9 -6 1 12 6 15 18 11 9 -4 12 -8 7 -10 -6 -2 -8 -17 -6 -33 4 -30 -10 -41
-24 -18 -4 7 -3 8 4 4 7 -4 12 -1 12 7 0 8 -7 17 -15 21 -8 3 -15 13 -15 23 0
15 -2 16 -10 3 -8 -13 -10 -12 -10 3 0 24 19 21 30 -5z m-10 -43 c0 -8 -4 -15
-10 -15 -5 0 -7 7 -4 15 4 8 8 15 10 15 2 0 4 -7 4 -15z m101 -81 c-4 -36 -10
-46 -22 -39 -10 7 -12 58 -2 69 14 14 28 -2 24 -30z m49 15 c0 -5 -4 -8 -9 -4
-6 3 -7 -9 -4 -30 4 -28 2 -35 -11 -35 -9 0 -16 8 -16 18 0 14 2 15 10 2 8
-13 10 -13 10 2 0 9 -5 18 -11 20 -14 5 0 38 17 38 8 0 14 -5 14 -11z m480 1
c0 -5 -7 -10 -16 -10 -8 0 -12 5 -9 10 3 6 10 10 16 10 5 0 9 -4 9 -10z
m-2603 -42 c-3 -7 -5 -2 -5 12 0 14 2 19 5 13 2 -7 2 -19 0 -25z m2515 -40
c19 -15 27 -43 13 -45 -5 0 -9 3 -7 9 1 5 -3 6 -9 2 -9 -5 -10 -2 -6 9 4 11 1
17 -9 17 -12 0 -12 -4 -4 -20 6 -11 8 -20 5 -20 -15 0 -20 3 -17 12 1 5 -1 7
-6 4 -5 -3 -20 6 -32 19 l-23 25 39 0 c22 0 47 -6 56 -12z m-488 -17 c9 -14
-12 -61 -26 -61 -9 0 -10 3 -2 8 15 10 30 57 15 48 -6 -4 -11 -14 -11 -23 0
-9 -3 -14 -6 -10 -8 8 5 47 16 47 5 0 11 -4 14 -9z m-2303 -76 c-6 -24 -8 -51
-5 -59 5 -14 -5 -16 -77 -16 -95 0 -103 7 -12 12 l62 3 6 40 c3 22 11 54 18
70 17 43 22 7 8 -50z m2334 45 c-12 -4 -15 -9 -8 -13 14 -9 4 -49 -10 -44 -6
2 -12 10 -15 18 -3 11 -2 11 6 1 8 -11 10 -11 15 2 3 8 1 16 -4 18 -6 2 -7 11
-4 20 4 10 13 14 23 11 13 -6 13 -7 -3 -13z m582 -12 c-3 -8 -6 -5 -6 6 -1 11
2 17 5 13 3 -3 4 -12 1 -19z m-454 -49 c-8 -8 -13 -7 -18 2 -5 8 -4 10 3 5 7
-4 12 -2 12 5 0 7 3 9 7 6 4 -4 2 -12 -4 -18z m-1210 4 c-7 -2 -19 -2 -25 0
-7 3 -2 5 12 5 14 0 19 -2 13 -5z m-270 -10 c-7 -2 -19 -2 -25 0 -7 3 -2 5 12
5 14 0 19 -2 13 -5z m90 0 c-13 -2 -33 -2 -45 0 -13 2 -3 4 22 4 25 0 35 -2
23 -4z m-860 -40 c-13 -2 -33 -2 -45 0 -13 2 -3 4 22 4 25 0 35 -2 23 -4z
m3040 -41 c7 -10 23 -12 48 -8 33 5 37 3 43 -20 4 -13 4 -29 1 -34 -3 -5 -1
-11 5 -15 28 -17 6 -27 -50 -23 -37 3 -61 0 -63 -6 -4 -12 -190 -10 -247 2
-45 10 -53 39 -13 47 47 9 118 51 117 69 -1 9 2 16 7 16 5 0 9 -6 9 -13 0 -8
11 -24 24 -36 l24 -23 36 37 c20 20 37 42 37 48 1 7 4 3 6 -8 3 -11 10 -26 16
-33z m-4275 -9 c-15 -2 -42 -2 -60 0 -18 2 -6 4 27 4 33 0 48 -2 33 -4z m587
-113 c4 -6 -16 -10 -52 -9 -44 1 -52 3 -33 9 36 12 78 12 85 0z m-148 -6 c-3
-3 -12 -4 -19 -1 -8 3 -5 6 6 6 11 1 17 -2 13 -5z m-99 -11 c-10 -2 -26 -2
-35 0 -10 3 -2 5 17 5 19 0 27 -2 18 -5z m1879 -21 c6 -4 13 -21 15 -37 4 -38
36 -45 77 -16 16 12 34 21 40 21 7 0 25 10 41 21 17 13 35 19 46 15 9 -4 14
-9 11 -12 -16 -16 93 -118 141 -132 23 -7 50 -25 62 -39 20 -26 20 -28 4 -40
-31 -23 -78 -25 -223 -9 -79 9 -165 16 -191 16 -31 0 -56 6 -70 18 -21 17 -22
20 -7 48 15 29 30 89 27 108 -1 5 4 13 12 17 11 7 10 11 -2 19 -8 5 -10 10 -5
10 6 0 15 -4 22 -8z m944 -83 c12 -24 5 -35 -32 -44 -17 -4 -30 -1 -38 9 -17
21 -70 20 -92 0 -23 -21 -121 -22 -168 -3 -32 14 -31 14 50 15 70 0 96 5 159
30 80 33 100 31 121 -7z m-1523 -8 c2 -6 10 -11 19 -11 18 0 14 -52 -11 -119
-18 -49 -20 -84 -7 -110 5 -9 6 -22 3 -28 -11 -17 -208 -29 -225 -14 -20 16
-18 90 3 127 10 17 21 45 25 62 8 37 41 82 61 82 8 0 14 5 14 10 0 28 109 28
118 1z m2065 -93 c4 -27 2 -38 -10 -42 -29 -11 -38 -5 -13 9 14 8 19 14 12 15
-18 0 -75 -30 -87 -47 -9 -11 -20 -12 -59 -3 -45 10 -106 36 -106 45 0 2 15
-1 32 -6 43 -12 124 -12 148 1 10 5 28 26 40 46 25 40 35 36 43 -18z"/>
<path d="M4713 2611 c-35 -22 -49 -52 -35 -78 5 -10 7 -25 4 -33 -3 -8 10 0
28 18 29 30 39 33 76 30 42 -3 42 -3 37 27 -3 16 -10 36 -16 43 -14 18 -57 15
-94 -7z m87 -6 c6 -8 10 -22 7 -32 -4 -14 -5 -13 -6 5 -1 13 -10 26 -23 32
-16 6 -18 9 -7 9 9 1 22 -6 29 -14z m-15 -24 c0 -7 -17 -19 -37 -26 -35 -12
-38 -11 -38 5 0 11 11 22 28 28 32 12 47 10 47 -7z"/>
<path d="M4530 2555 c0 -8 2 -15 4 -15 2 0 6 7 10 15 3 8 1 15 -4 15 -6 0 -10
-7 -10 -15z"/>
<path d="M4501 2551 c-8 -5 -9 -11 -3 -15 5 -3 12 1 16 9 6 17 6 18 -13 6z"/>
<path d="M4450 2531 c-14 -27 -13 -31 10 -31 15 0 20 7 20 25 0 30 -15 33 -30
6z"/>
<path d="M4374 2515 c-3 -8 -4 -20 -1 -27 3 -7 6 -3 6 10 1 13 5 20 11 17 5
-3 18 -1 27 4 15 9 14 10 -10 11 -15 0 -30 -7 -33 -15z"/>
<path d="M4857 2498 c8 -52 -14 -82 -76 -103 -57 -19 -87 -10 -95 28 -3 12 -7
31 -9 42 -3 11 -5 3 -6 -17 -1 -26 5 -43 21 -58 26 -24 28 -24 95 -3 40 13 58
25 69 45 16 31 18 66 4 88 -6 10 -8 3 -3 -22z"/>
<path d="M4327 2502 c-3 -4 1 -13 9 -19 7 -7 15 -9 17 -5 3 4 -1 13 -9 19 -7
7 -15 9 -17 5z"/>
<path d="M4770 2495 c0 -8 7 -15 15 -15 8 0 15 -4 15 -10 0 -5 -4 -10 -10 -10
-5 0 -10 -4 -10 -10 0 -5 7 -7 15 -4 21 9 19 44 -2 44 -15 0 -16 2 -3 10 13 8
12 10 -2 10 -10 0 -18 -7 -18 -15z"/>
<path d="M4545 2480 c-4 -6 -13 -9 -20 -8 -15 3 -17 -4 -9 -27 4 -8 1 -22 -6
-30 -10 -12 -9 -15 4 -15 9 0 16 5 16 11 0 6 9 8 20 4 22 -7 26 5 8 23 -9 9
-9 15 0 24 7 7 12 16 12 20 0 11 -18 10 -25 -2z"/>
<path d="M4725 2480 c-4 -6 1 -7 11 -3 14 5 15 3 5 -15 -14 -26 -14 -32 2 -32
6 0 13 14 14 30 2 30 -18 42 -32 20z"/>
<path d="M3980 2468 c-32 -9 -113 -81 -103 -92 3 -2 -5 -9 -16 -16 -28 -15
-26 -30 3 -28 17 2 22 6 16 14 -17 19 2 25 28 8 13 -9 22 -12 18 -6 -6 10 21
27 37 23 5 -1 6 3 2 9 -5 7 -11 8 -19 1 -12 -11 -53 -9 -48 2 1 4 2 10 2 13 0
4 7 1 15 -6 16 -13 39 -4 29 12 -4 5 5 3 19 -7 15 -10 28 -12 31 -6 4 5 1 13
-5 17 -8 5 -9 3 -4 -6 5 -9 4 -11 -4 -6 -15 10 -4 27 13 20 7 -3 19 3 27 13
12 16 12 17 -2 6 -13 -10 -16 -10 -16 1 0 8 9 13 23 11 15 -1 21 3 20 13 -3
19 -21 22 -66 10z"/>
<path d="M4327 2453 c-2 -5 -2 -27 1 -50 3 -37 7 -43 27 -43 13 0 32 11 42 24
17 21 21 22 29 9 21 -33 82 14 68 51 -10 25 -61 20 -75 -6 -8 -14 -14 -18 -17
-10 -2 6 -15 12 -28 12 -13 0 -24 5 -24 10 0 12 -17 14 -23 3z m141 -30 c-4
-22 -22 -20 -26 1 -2 10 3 16 13 16 10 0 15 -7 13 -17z m-88 -17 c0 -8 -4 -17
-9 -21 -12 -7 -24 12 -16 25 9 15 25 12 25 -4z"/>
<path d="M40 2276 c0 -18 15 -23 88 -32 38 -4 62 -2 66 4 3 6 -2 13 -11 16
-16 4 -131 26 -140 26 -2 0 -3 -6 -3 -14z"/>
<path d="M520 2255 c-8 -9 -8 -15 -2 -15 12 0 26 19 19 26 -2 2 -10 -2 -17
-11z"/>
<path d="M461 2164 c0 -11 3 -14 6 -6 3 7 2 16 -1 19 -3 4 -6 -2 -5 -13z"/>
<path d="M498 2043 c7 -3 16 -2 19 1 4 3 -2 6 -13 5 -11 0 -14 -3 -6 -6z"/>
<path d="M922 2020 c0 -14 2 -19 5 -12 2 6 2 18 0 25 -3 6 -5 1 -5 -13z"/>
<path d="M686 1978 c-7 -61 -8 -153 -2 -147 7 6 20 199 14 199 -3 0 -8 -24
-12 -52z"/>
<path d="M760 1908 c0 -48 16 -42 26 10 5 25 3 32 -10 32 -12 0 -16 -10 -16
-42z"/>
<path d="M909 1893 c0 -10 -3 -38 -6 -63 -2 -25 -1 -42 3 -38 8 9 18 118 10
118 -3 0 -6 -8 -7 -17z"/>
<path d="M769 1819 c-1 -37 -2 -40 -9 -19 -7 21 -9 17 -9 -20 0 -25 -3 -55 -6
-67 -5 -14 -3 -23 3 -23 6 0 12 -15 14 -32 2 -18 7 18 12 80 4 62 5 116 2 119
-3 4 -6 -14 -7 -38z"/>
<path d="M670 1758 c0 -34 2 -59 4 -57 8 10 14 119 5 119 -5 0 -9 -28 -9 -62z"/>
<path d="M898 1735 c-6 -49 -4 -64 8 -53 3 3 4 28 2 54 l-3 49 -7 -50z"/>
<path d="M410 1702 c0 -5 7 -9 15 -9 8 0 15 4 15 9 0 4 -7 8 -15 8 -8 0 -15
-4 -15 -8z"/>
<path d="M408 1650 c-3 -17 -1 -33 3 -35 10 -7 19 48 9 58 -4 5 -10 -6 -12
-23z"/>
<path d="M447 1651 c3 -12 13 -21 22 -21 12 0 13 2 3 9 -8 4 -13 12 -12 17 1
5 -3 10 -8 12 -6 2 -8 -6 -5 -17z"/>
<path d="M757 1593 c-4 -3 -7 -30 -7 -59 0 -29 -4 -55 -9 -58 -4 -3 -11 -32
-15 -63 -6 -61 -41 -489 -51 -628 -3 -44 -8 -101 -11 -127 l-6 -48 40 0 40 0
6 58 c15 157 19 255 20 580 1 193 1 352 1 352 -1 0 -5 -3 -8 -7z"/>
<path d="M960 1470 c0 -5 4 -10 9 -10 6 0 13 5 16 10 3 6 -1 10 -9 10 -9 0
-16 -4 -16 -10z"/>
<path d="M362 895 c0 -16 2 -22 5 -12 2 9 2 23 0 30 -3 6 -5 -1 -5 -18z"/>
<path d="M345 732 c-4 -57 -5 -105 -2 -108 7 -7 21 180 15 198 -3 7 -9 -33
-13 -90z"/>
<path d="M603 740 c0 -25 2 -35 4 -22 2 12 2 32 0 45 -2 12 -4 2 -4 -23z"/>
<path d="M1830 2287 c0 -14 40 -57 53 -57 18 0 4 28 -23 48 -21 16 -30 19 -30
9z"/>
<path d="M1250 1699 c0 -29 3 -49 7 -45 11 11 13 85 2 92 -5 3 -9 -18 -9 -47z"/>
<path d="M2780 1413 c0 -13 5 -23 10 -23 13 0 13 11 0 30 -8 12 -10 11 -10 -7z"/>
<path d="M3840 1030 c0 -5 7 -10 16 -10 8 0 12 5 9 10 -3 6 -10 10 -16 10 -5
0 -9 -4 -9 -10z"/>
<path d="M3570 855 c0 -14 2 -25 4 -25 2 0 6 11 8 25 3 14 1 25 -3 25 -5 0 -9
-11 -9 -25z"/>
<path d="M1618 3453 c-19 -20 -80 -128 -91 -158 -6 -16 -3 -15 13 5 65 79 112
152 103 161 -6 6 -15 3 -25 -8z"/>
<path d="M1682 3388 c-11 -18 -22 -39 -24 -46 -2 -7 33 -28 87 -51 113 -49
135 -55 135 -42 0 6 7 11 15 11 8 0 15 -6 15 -14 0 -19 49 -41 401 -180 l295
-118 47 29 c25 15 45 32 44 37 -3 9 -141 68 -641 272 -182 74 -335 134 -342
134 -7 0 -21 -15 -32 -32z"/>
<path d="M1620 3279 c0 -6 12 -34 26 -62 16 -32 23 -60 19 -74 -3 -13 -1 -23
5 -23 5 0 10 -9 10 -20 0 -11 4 -20 9 -20 5 0 16 -3 25 -6 13 -5 15 -1 10 25
-5 25 -4 30 8 26 8 -3 15 0 16 7 8 59 16 88 23 88 12 0 11 -47 -1 -55 -6 -4
-5 -13 3 -26 10 -16 9 -21 -2 -28 -18 -12 -6 -62 13 -55 8 3 83 -22 167 -56
182 -73 535 -200 555 -200 10 0 14 12 14 39 0 22 5 43 10 46 6 3 10 1 10 -5 0
-6 4 -9 9 -6 5 3 6 20 2 37 -6 28 -14 33 -106 69 -312 119 -511 196 -595 230
-83 34 -95 37 -98 22 -7 -39 -12 -45 -26 -33 -7 6 -24 10 -36 9 -17 -2 -26 5
-36 28 -12 30 -12 32 7 27 10 -3 22 -9 25 -14 8 -14 24 -11 24 4 0 7 -15 18
-33 25 -41 15 -57 15 -57 1z m110 -124 c0 -8 -4 -15 -10 -15 -5 0 -10 7 -10
15 0 8 5 15 10 15 6 0 10 -7 10 -15z"/>
<path d="M300 3185 c0 -20 17 -28 23 -11 3 8 -1 17 -9 20 -8 3 -14 -1 -14 -9z"/>
<path d="M1271 3171 c-11 -7 -3 -12 28 -21 23 -6 50 -9 59 -7 10 3 6 5 -9 6
-15 0 -29 8 -33 16 -6 17 -24 19 -45 6z"/>
<path d="M1375 3129 c-4 -6 -3 -15 3 -21 6 -6 11 -4 15 6 7 18 -9 31 -18 15z"/>
<path d="M1460 3106 c0 -22 3 -27 11 -19 8 8 8 16 0 30 -9 16 -10 14 -11 -11z"/>
<path d="M2746 2936 c-20 -23 -36 -47 -36 -51 0 -11 69 55 81 78 19 33 -9 17
-45 -27z"/>
<path d="M1821 2966 c8 -9 421 -147 425 -143 3 2 -87 35 -198 73 -215 73 -236
80 -227 70z"/>
<path d="M1540 2942 c0 -9 80 -42 102 -42 23 0 3 18 -33 29 -23 7 -47 15 -55
18 -8 3 -14 1 -14 -5z"/>
<path d="M1084 2909 c-5 -8 -2 -10 7 -5 8 4 5 1 -5 -8 -10 -8 -24 -12 -30 -9
-6 4 -5 -1 3 -10 21 -26 51 -22 51 7 0 28 -15 42 -26 25z"/>
<path d="M1610 2859 c-30 -16 -59 -35 -65 -41 -11 -12 104 49 120 63 16 15 2
10 -55 -22z"/>
<path d="M1710 2884 c0 -10 69 -34 97 -33 23 0 20 4 -22 19 -52 19 -75 24 -75
14z"/>
<path d="M890 2870 c0 -5 5 -10 10 -10 6 0 10 5 10 10 0 6 -4 10 -10 10 -5 0
-10 -4 -10 -10z"/>
<path d="M1870 2831 c0 -5 15 -11 33 -15 17 -3 39 -16 48 -28 9 -11 21 -18 28
-14 24 15 9 33 -42 49 -62 20 -67 20 -67 8z"/>
<path d="M800 2780 c8 -5 22 -10 30 -10 13 0 13 1 0 10 -8 5 -22 10 -30 10
-13 0 -13 -1 0 -10z"/>
<path d="M2450 2760 c0 -5 7 -10 15 -10 8 0 15 5 15 10 0 6 -7 10 -15 10 -8 0
-15 -4 -15 -10z"/>
<path d="M1188 2743 c7 -3 16 -2 19 1 4 3 -2 6 -13 5 -11 0 -14 -3 -6 -6z"/>
<path d="M2498 2743 c6 -2 18 -2 25 0 6 3 1 5 -13 5 -14 0 -19 -2 -12 -5z"/>
<path d="M271 2724 c0 -11 3 -14 6 -6 3 7 2 16 -1 19 -3 4 -6 -2 -5 -13z"/>
<path d="M2430 2707 c0 -8 14 -13 36 -14 44 -1 41 18 -4 23 -21 3 -32 0 -32
-9z"/>
<path d="M2659 2693 c-7 -16 -15 -31 -17 -35 -2 -3 5 -8 15 -10 12 -2 22 6 30
25 21 49 -4 66 -28 20z"/>
<path d="M2300 2690 c0 -5 10 -10 23 -10 18 0 19 2 7 10 -19 13 -30 13 -30 0z"/>
<path d="M2382 2661 c-8 -5 -12 -17 -10 -27 2 -15 5 -13 15 9 14 30 14 30 -5
18z"/>
<path d="M1480 2640 c0 -19 3 -21 12 -12 9 9 9 15 0 24 -9 9 -12 7 -12 -12z"/>
<path d="M2431 2646 c4 -4 21 -11 39 -16 20 -6 30 -6 24 -1 -10 11 -72 27 -63
17z"/>
<path d="M2680 2612 c0 -11 -10 -24 -22 -30 -18 -8 -19 -11 -6 -11 9 -1 22 -9
27 -18 8 -14 10 -8 11 30 0 26 -2 47 -5 47 -3 0 -5 -8 -5 -18z"/>
<path d="M2237 2603 c-13 -13 -7 -73 7 -73 11 0 26 40 26 71 0 11 -24 12 -33
2z"/>
<path d="M1856 2531 c-6 -10 0 -71 8 -79 3 -3 6 16 6 41 0 46 -4 56 -14 38z"/>
<path d="M2065 2490 c3 -5 11 -10 16 -10 6 0 7 5 4 10 -3 6 -11 10 -16 10 -6
0 -7 -4 -4 -10z"/>
<path d="M2236 2446 c6 -16 34 -30 34 -18 0 5 -5 13 -12 20 -16 16 -29 15 -22
-2z"/>
<path d="M2730 2405 c0 -14 5 -25 10 -25 6 0 10 11 10 25 0 14 -4 25 -10 25
-5 0 -10 -11 -10 -25z"/>
<path d="M3588 2195 c2 -14 8 -25 13 -25 10 0 11 12 3 34 -10 25 -22 19 -16
-9z"/>
<path d="M2470 2186 c-13 -13 -13 -36 0 -36 20 0 60 24 60 36 0 14 -46 14 -60
0z"/>
<path d="M5332 217 c-117 -36 -115 -39 41 -54 l87 -9 0 48 c0 32 -4 48 -12 47
-7 0 -59 -15 -116 -32z"/>
</g>
</svg>
